<?xml version="1.0" encoding="UTF-8"?>
<svg id="Livello_2" data-name="Livello 2" xmlns="http://www.w3.org/2000/svg" viewBox="0 0 242.95 97.1">
  <defs>
    <style>
      .cls-1 {
        fill: #faeb53;
      }

      .cls-2 {
        fill: #d02f28;
      }

      .cls-3 {
        fill: #fff;
      }

      .cls-4 {
        fill: #1d1d1c;
      }

      .cls-5 {
        fill: #008b47;
      }

      .cls-6 {
        fill: #005ab2;
      }
    </style>
  </defs>
  <polygon class="cls-3" points="125.02 4.33 91.44 96.69 92.76 96.69 126.34 4.33 125.02 4.33"/>
  <g>
    <polygon class="cls-3" points=".01 8.91 .01 10.74 35.77 4.66 71.52 10.75 71.52 8.91 35.77 2.29 .01 8.91 .01 8.91"/>
    <path class="cls-2" d="M71.52,10.73l-35.75-6.08L.01,10.73l.09,6s17.97-7.8,35.66-7.8c17.7,0,35.66,7.8,35.66,7.8l.09-6h0Z"/>
    <path class="cls-4" d="M35.77,8.69C13.43,8.69.1,16.59.1,16.59l.27,17.99c0,8.26,2.7,43.39,35.4,62.52,32.72-19.13,35.4-54.25,35.4-62.52l.27-17.99s-13.32-7.9-35.67-7.9h0Z"/>
    <path class="cls-1" d="M70.09,17.88s-11.62-7.4-34.32-7.4S1.44,17.88,1.44,17.88l.36,16.7c0,6.54,1.25,41.58,33.97,60.6,32.72-19.02,33.97-54.06,33.97-60.6l.36-16.7h0Z"/>
    <path class="cls-4" d="M34.96,13.25s-.04.39-.13.61c-.08.21-.31.35-.3.49.02.14.16.3.39.42.22.12.31.21.54.26.21.05.48.21.56.03.08-.18-.04-.4-.17-.61-.22-.37-.34-.45-.67-.96-.07-.11-.13-.23-.23-.24h0Z"/>
    <path class="cls-4" d="M33.28,52.99c.02-.06.55.27.83.43.58.35.84.55,1.35.94.4.31.6.47,1.01.82.5.43.77.8.9.71.19-.23-.32-.92-.77-1.29-.44-.36-.9-.66-1.25-.89-.45-.3-.49-.37-1.17-.82-.73-.49-1.36-1.1-1.36-1.1l-.71-.56-1.11-.94-1.23-1.14-.93-1.04s-.72-.88-.84-1.05c-.12-.17-.46-.72-.74-1.18-.25-.41-.74-1.06-.79-1.12-.26-.32-.86-.19-1.56-.6-.85-.5-1.05-.96-1.05-.96,0,0-.03-.07-.06-.1-.03-.04-.1-.08-.1-.08l-.44-.31-.25-.17s-.19-.16-.44-.26c-.24-.11-.79-.42-.79-.42l-.97-.62s-.38-.31-.51-.41c-.13-.1-.37-.24-.37-.24,0,0-.15-.08-.2-.08-.05,0-.25-.02-.25-.02,0,0-.19-.05-.38.18-.19.22-.15.1.16,1.36.12.5.11,2.25.24,2.78.17.69.65,1.57.7,1.68.05.1.08.49.08.49,0,0-.02.31.01.51.15.9,1.47.31,1.76,1.55.29,1.22-.17,2.45-.17,2.45,0,0-.29.61-.69.7-.4.1-1.02-.79-1.47-1.51-.44-.71-.81-1.64-.92-1.93-.12-.29-.18-.36-.31-.57-.2-.32-.36-.26-.58-.76-.22-.5-.03-.7-.13-1.14-.06-.24-.11-.27-.19-.62-.08-.35-.17-1.45-.17-1.45l-.14-1.02s-.05-.47-.11-.76c-.22-1.02-.3-2.01-.3-2.01l-.04-.41-.02-.42s-.01-.2.04-.41c.05-.21.15-.38.15-.38,0,0,.2-.35.24-.43.04-.08.46-.57.46-.57,0,0,.22-.18.58-.4.36-.22.69-.2.69-.2,0,0,.09-.01.73.07.64.08,1.96.43,2.29.52.33.09.72.23.98.37.73.4.95.23.37-.23-.39-.31-.5-.44-.82-.73-.27-.24-.48-.41-.67-.63-.2-.23-.77-1.07-.77-1.07l-.35-.52s-.19-.21-.22-.23c-.03-.02-.13-.09-.13-.09,0,0-.23.01-.48-.03-.24-.05-.36.29-.36.29,0,0-.53.98-1.06,1.59-.87.98-1.49,1.64-1.81,2.16-.45.72-.35,1.51-.58,1.88-.14.21-.21.25-.28.43-.22.57.59.88.41,1.51-.3.99-2.63,1.98-2.94,1.82-.32-.17-.06-1.52.05-1.95.11-.44.44-1.08.47-1.12.03-.03.11-.18.13-.31.03-.13.03-.42.05-.58.02-.16.08-.42.08-.42,0,0,.01-.05.22-.5.21-.45.97-1.5,1.51-2.5.36-.65.51-1.05.87-1.7.33-.6.9-1.51.9-1.51,0,0,.24-.47.35-.64.11-.18.35-.51.58-.84.23-.33.28-.58.58-.85.25-.23.41-.35.73-.45.48-.16.8-.07,1.28.06.5.14.85.37,1.18.64.33.27.57.58.57.58l.16.23.1.06.31.2.7.46s1.66,1.13,1.75,1.19c.09.06.38.3.45.32.06.02.5-.46,1.37-1.06,1-.69,1.36-.64,1.69-.82.33-.18.46-.33.72-.59.39-.39.39-.6.83-1.14.44-.54.86-.85.86-.85,0,0,.06-.06.85-.95.79-.89,1.14-1.57,1.14-1.57l.43-.87s.63-1.35.83-1.88c.2-.54.2-.71.2-.71,0,0,.03-.14-.12-.41-.16-.27-.32-.15-.62-.09-.58.12-.93-.03-1.51-.13-.53-.09-.81-.25-1.35-.34-.54-.09-.86-.18-1.4-.13-.08,0-.25.04-.33.07-.3.1-.39.13-.62.26-.26.12-.44.16-.73.17-.2,0-.32,0-.51-.06-.13-.05-.2-.09-.3-.18-.06-.06-.09-.09-.14-.16,0-.06-.02-.05.03-.15.05-.09.12-.11.12-.11l.25-.06s.35-.09.38-.1c.03,0,.36-.12.51-.16.15-.05.31-.13.31-.13,0,0,.09-.14.05-.22-.04-.09-.24-.1-.24-.1,0,0-.28.1-.31.11-.03,0-.47.15-.47.15,0,0-.35.08-.62.14-.27.06-.66.09-.66.09l-.12-.03s-.13-.09-.15-.18c-.02-.08-.03-.15-.05-.24-.06-.34-.13-.55-.05-.89.03-.14.07-.22.13-.35.05-.11.09-.17.15-.28l.22-.35.4-.6c.14-.14.23-.21.4-.31.26-.15.41-.19.73-.22.32-.03.36-.03.81-.13.45-.1.77-.28.77-.28,0,0,1.07-.4,1.73-.72.69-.34.99-.7,1.7-.97.3-.12.47-.17.78-.25.04-.02.06-.05.07-.09.03-.12-.15-.17-.26-.16-.11.01-.35.12-.41,0-.04-.1.22-.15.22-.15,0,0,.13-.06.13-.13,0-.1-.18-.04-.26-.05-.42-.05-.45-.12-.74-.19-.34-.08-.53-.19-.88-.2-.31-.01-.61.05-.8.1-.19.05-.2-.14-.12-.18.55-.26.56-.28.94-.29.21,0,.51.04.54.05.03.02.45,0,.56-.11.11-.11-.35-.1-.56-.19-.2-.08-.5-.1-.49-.23,0-.13.16-.06.26-.09.13-.03.21-.03.34-.05.24-.03.26-.05.62-.09.36-.03.87.12.87.12,0,0,.54.24.8.36.26.12.58.19.58.19,0,0,.37.05.66-.12.29-.18.13-.29.02-.46-.1-.15-.22-.37-.04-.79.16-.37.25-.79.29-.83.06-.05.29.28.43.42.52.49,1.22.73,1.87,1.76.05.08.3-.05,1.06.07.76.12,1.42.93,1.59,1.12.17.19.4.19.4.19l.36.05,1.33.02s.6-.11.95.02c.24.09,1.05.63.68.84-.26.14-.5-.17-.73-.19-.27-.02-.4.03-.64.1-.51.13-1.62.46-1.22.6.03.01.09.02.09.02l.2.03s.48.11.78.23c.44.18.65.37,1.06.61.23.13.33.27.59.34.23.07.38,0,.62.04.31.06.49.12.78.26.42.21.58.45.97.73.19.14.35.16.49.35.03.04.06.06.08.11.05.17-.28.07-.46.04-.19-.03-.28-.13-.45-.21-.27-.12-.39-.26-.68-.32-.21-.04-.34,0-.55,0-.21,0-.32.04-.53.05-.36,0-.56-.03-.91-.1-.39-.08-.58-.24-.98-.32-.44-.09-1.22-.47-1.14-.09.04.18.45.33.45.33,0,0,.28.16.55.27.27.12.42.29.42.29l.19.14s.19.26.44.56c.25.29.68.29.68.29,0,0,.26,0,.83.12.57.12,1.15.47,1.15.47,0,0,.44.3.7.61.26.3.11.46.08.49-.03.03-.02.02-.05.03-.03.02-.35-.38-.35-.38l-.22-.19s-.22-.16-.51-.25c-.29-.09-.38-.03-.38-.03,0,0-.61.17-1.14.16-.53-.02-.81-.23-.81-.23l-.33-.22s-.5-.47-.52-.25c-.01.15.22.32.22.32,0,0,.16.16.27.27.2.2.28.3.52.51.23.21.38.21.38.21,0,0,.12.03.17.04.05,0,.13.03.13.03,0,0,.08.03.44.18.37.15.75.47.75.47,0,0,.04.03.09.04.05,0,.16.06.19.07.03,0,.12,0,.33.04.21.03.13.16.13.16l-.04.05-.17.12s-.23.06-.38.07c-.16,0-.37-.08-.37-.08l-.47-.18s-.47-.12-.57-.14c-.1-.02-.53-.1-.6-.12-.07-.02-.29-.09-.34-.12-.05-.03-.16-.05-.42-.18-.26-.12-.36-.27-.68-.37-.32-.1-.51-.12-.75.05-.41.28.62.33,1.14.59.76.37,1.19.65,1.37,1.05.18.4.37.55.37.55,0,0,.53.27.77.55.13.15.15.28.28.43.29.34.86.33.98.62.11.27-.46.15-.76.12-.53-.05-.66-.54-1.16-.74-.28-.11-.46-.11-.75-.21-.52-.17-.77-.4-1.29-.56-.31-.1-.89-.52-.82-.19.02.08.06.14.09.19.02.05.16.22.16.22,0,0,.18.23.26.29.08.06.42.32.9.58.48.26.9.77.9.77,0,0,.14.2.21.35.07.16.02.21.13.43.11.22.16.27.3.4.35.34.72.27,1.17.46.12.05.13.07.26.21.13.14-.02.2-.02.2,0,0-.5.13-.82.1-.42-.03-.6-.16-1.02-.36-.41-.2-.63-.57-.67-.59-.04-.02-.14-.13-.22-.19-.08-.05-.28-.1-.46-.15-.18-.05-.29-.06-.47-.11-.25-.07-.5-.18-.62-.22-.12-.04-.38-.09-.58.03-.39.23.6.39.91.72.16.17.22.28.37.46.12.13.16.23.3.33.1.07.27.15.27.15,0,0,.24.11.59.3.35.19.76.74.76.74l.25.38.15.22.04.1.05.12s.18.23.31.31c.13.08.11.15.11.15,0,0-.02.05-.11.1-.09.05-.14,0-.27-.03-.13-.04-.22-.16-.33-.26-.12-.09-.24-.33-.46-.46-.19-.11-.43-.15-.53-.19-.09-.03-.33-.18-.42-.22-.09-.04-.33-.15-.33-.15,0,0-.47-.26-.72-.33-.26-.07-.09.09-.09.09,0,0,.23.36.45.5.29.19.69.36.56.51-.09.1-.21.07-.34.05-.21-.02-.47-.28-.47-.28,0,0-.11-.07-.59-.23-.48-.16-.3.11-.19.25.11.14.26.22.26.22l.33.15.15.05s.13.02.57.12c.43.1.67.31.67.31,0,0,.23.22.56.46.33.24.65.3.83.33.18.02.17.15.17.15,0,0,.02.12.02.16,0,.04-.05.07-.09.07s-.05.02-.1.04c-.05.02-.23.05-.23.05,0,0-.49-.02-.87-.11-.38-.09-.71-.36-.74-.37-.03-.02-.39-.21-.63-.29-.24-.08-.62-.05-.66-.03-.04.02-.17.04-.4.1-.23.06.05.15.05.15l.16.02.39.03s.4.05.74.17c.34.12.56.37.78.6.22.22.47.37.47.37l.18.12.09.07.02.06s0,.03-.02.07c-.02.04-.07.07-.07.07,0,0-.09-.02-.12-.02s-.29-.13-.48-.22c-.2-.09-.3-.17-.5-.22-.18-.04-.42-.06-.47-.05-.05.02-.45.07-.75.09-.3.02-.57.03-.93-.02-.51-.06-1.19-.47-1.28-.35-.18.23.37.3.63.45.36.21.98.4.98.4,0,0,.45.1.72.22.58.27.76.67,1.23,1.09.26.24.47.34.81.39.3.04.29,0,.77-.09.47-.09.76-.54.9-.38.03.03.02.06,0,.11,0,.05-.05.13-.05.13,0,0-.05.08-.14.16-.09.09-.41.26-.58.33-.17.07-.59.19-1.12.17-.53-.02-1.26-.42-1.26-.42l-.54-.23s-.25-.12-.41-.18c-.44-.17-.72-.15-1.18-.27-.28-.08-.47-.15-.72-.21-.26-.05-.11.05-.09.09.12.16.28.21.48.31.27.13.46.1.74.22.31.13.57.3.74.41.17.11.29.23.46.4l.57.48s.13.11.15.15c.02.05.08.16.05.35-.03.19-.19.05-.19.05l-.15-.09-.15-.14-.24-.19s-.2-.19-.55-.36c-.35-.18-.77-.23-.77-.23,0,0-.37-.05-.36.06.02.12.1.12.4.2.29.08.49.22.49.22,0,0,.3.23.52.47.22.25.28.49.28.49,0,0,.11.2.39.47.28.27.43.18.41.31-.02.13-.14.16-.14.16,0,0-.07,0-.1,0s-.1-.04-.18-.07c-.08-.03-.37-.23-.37-.23,0,0-.46-.37-.51-.41-.05-.04-.49-.36-.49-.36,0,0-.26-.16-.44-.26-.19-.09-.43-.19-.57-.23-.14-.05-.4-.06-.4-.06,0,0-.31-.05-.5-.12-.3-.11-.64-.43-.68-.44-.04-.02-.32-.11-.37-.1-.05,0-.18.53-.21.83-.13,1.26.21,2.1.73,3.25.75,1.68,2.84,3.77,2.84,3.77,0,0,.52.3.75.47.62.49,1.66,1.18,2.58,2.1.78.78,1.83,2.18,1.83,2.18,0,0,.6.84.88,1.44.34.73.62,1.84.62,1.84,0,0,.02.19.05.23.02.04.07.09.11.09h.36s.45-.02.73-.09c.27-.07.92-.36,1.35-.59.43-.22.94-.66.94-.66,0,0,.1-.08.6-.64.5-.56.82-1.39.94-1.71.12-.31.22-.92.29-1.95.07-1.03-.07-2.12-.07-2.12,0,0-.19-1.52-.3-2.04-.11-.52-.39-1.36-.39-1.36,0,0-.19-.75-.25-1.23-.06-.48-.07-1.24-.07-1.24,0,0,0-.47.16-1.35s.69-1.75.69-1.75c0,0,.15-.29.73-.98.59-.7.78-.82,1.36-1.23.46-.33,1.06-.86,1.25-.74.21.14-.21.41-.35.55-.36.36-1.04.99-1.59,1.95-.48.83-.65,1.37-.77,1.91-.12.54-.07,1.13-.05,1.33.02.2.13.13.13.13,0,0,1.16-.93,1.8-1.64.68-.77,1.29-2.13,1.53-2.14.16,0,.24.36.2.52-.15.71-.2.8-.43,1.26-.26.54-.51.78-.87,1.27-.39.52-.57.72-.88,1.41-.44.99-.19,1.76-.19,1.76,0,0,.05.47.26.46.35-.01,1.12-.98,1.62-1.77.37-.58.5-1.26.75-1.61.22-.31.41.51.32.99-.11.58-.4,1.09-1.02,1.91-.61.8-.59,1.55-.59,1.55,0,0-.07.35-.12,1.1-.05.75.17,1.89.17,1.89,0,0,.19.95.23,1.68.04.72.01,2.38-.66,3.66-.27.52-.85,1.23-.85,1.23,0,0-.44.46-.81.72-.37.27-1.24.68-1.24.68,0,0-.6.21-.69.23-.09.02-.14.1-.14.1,0,0,.06.12.08.17.02.05.19.47.19.47,0,0,.18.6.25,1.06.07.47-.01.58-.08.94-.07.34-.22.18-.25.86-.03.6.24.9.19,1.56-.02.29-.36-.37-.51-.65-.34-.62-.26-1.55-.27-1.78,0-.23-.03-.49-.11-.79-.11-.38-.26-.68-.44-.91-.18-.23-.37-.36-.43-.34-.06.02-.07.14-.07.21,0,.06.12.28.15.33.03.05.26.46.26.46,0,0,.1.31.14.93.04.61-.15,1.37-.15,1.37,0,0-.24.86-.5,1.36-.29.56-.92,1.31-.92,1.31,0,0-.46.42-.8,1.11-.34.69-.05.99-.17,1.07-.13.09-.4-.39-.48-.72-.07-.3-.03-.45.09-.79.12-.33.39-.8.39-.8l.41-.7s.49-.94.65-1.63c.16-.69-.02-1.44-.02-1.44,0,0-.02-.25-.19-.24-.17,0-.29.16-.36.34-.14.38.06.31-.16.93-.17.49-.22.43-.3.72-.11.35-.17.71-.16.93,0,.22-.11.13-.11.13,0,0-.21-.39-.21-.87,0-.26,0-.41.04-.67.05-.42.22-1.07.22-1.07,0,0,.19-.64.15-1.22-.04-.58-.25-.69-.25-.69,0,0-.05-.08-.28-.06-.23.02-.22.42-.22.42,0,0-.07.58-.16.93-.25.99-.58,1.51-1.17,2.35-.53.75-1.25,1.42-1.61,1.73-.36.31-1.47,1.12-1.47,1.12l-1.3.86s-.51.5-.75,1.1c-.24.6-.22,1.06-.09,1.61.14.55.34.8.44.95.1.15.3.42.37.73.04.2.01.31.02.51,0,.17.03.27.03.44,0,.27.04.47-.11.7-.12.17-.43.32-.43.32,0,0-.35.16-.56.28-2.21,1.33-2.99,2.2-4.24,3.68-.4.47-.11.45-.53,1.01-.25.34-.84.33-1.06.74-.3.55.67,1.09-.45,1.57-1.44.62-3.92.18-3.96-.02-.14-.54.48-1.15.7-1.39,1.01-1.1,1.91-1.13,2.24-2.04.07-.19.04-.36.85-.96.56-.42,2.82-2.11,3.8-3.25.34-.39.63-.65.77-1.07.15-.42-.15-.69-.15-.69l-.4-.66-.77-1.39s-.32-.73-.5-1.16c-.18-.42-.52-1.57-.52-1.57,0,0-.25-1.03-.29-1.69-.08-1.21.09-1.9.41-3.07.41-1.52,1.34-2.15,1.71-3.65.11-.44.13-1.18-.09-1.15-.21.04-.23.63-.39,1.02-.6,1.49-1.39,2.14-1.82,3.68-.29,1.04-.41,1.66-.41,2.74,0,.62-.02.51.14,1.58.06.4.16.61.28.99.08.27.3.79.3.79,0,0,.31.68.42,1.16.04.16.07.25.06.42-.02.28.03.35-.11.6-.17.32-.06.51-.61.62-.48.1-1.47-.22-1.47-.22,0,0-4.07-1.24-6.67-.88-.52.07-.79.26-1.31.25-.47,0-.71-.37-1.18-.24-.1.03-.13.1-.21.15-.69.48-.16,1.28-1.98.86-1.11-.26-2.46-.93-2.23-1.36.31-.57.73-.66,1.61-1.02.94-.39,2.35-.28,2.63-.3.34-.02.83-.26,1.43-.27,1.05-.02,1.24.1,1.24.1l1.78.16,3.41.04s.61-.05.85-.09c.24-.05.44-.53.57-.76.13-.23,0-.57,0-.57l-.1-.16-.32-.52-.6-1.01-.67-1.32s-.43-.93-.67-1.54c-.23-.6-.36-.94-.52-1.57-.16-.64-.26-1.17-.28-1.68-.03-.74-.07-1.32.13-1.93h0Z"/>
    <path class="cls-3" d="M55.43,51.76c.72-.92.79-1.78.83-2.98.03-.88-.3-2.23-.3-2.23l-.04-.1s-.13-.16-.2.05c.01.19.04.34.04.34l.04,1.74s-.06.88-.35,1.78c-.5,1.52-1.84,2.2-2.03,2.75-.33.92,1.17-.25,2.03-1.36h0Z"/>
    <path class="cls-3" d="M47.9,54.58s-.29.08-.3.37c0,.29.07.54.06.89,0,.44-.42.96-.15,1.13.45.29.84-1.74.7-2.04-.14-.3-.27-.36-.32-.36h0Z"/>
    <path class="cls-3" d="M42.84,68.6s-.08-.04-.25.02c-.16.06-.15.23-.15.23,0,0-.03.18.1.2.13.02.35-.3.35-.34,0-.04-.05-.11-.05-.11h0Z"/>
    <path class="cls-3" d="M38.07,71.98s-.05.05,0,.08c.04.03.1-.01.1-.01,0,0,.82-.64,1.31-1.1.52-.48,1.26-1.32,1.26-1.32,0,0,.05-.06,0-.12-.06-.05-.2.03-.31.08-.1.05-.16.11-.24.17-.08.06-.32.31-.32.31l-.64.62-.4.37-.39.37-.17.19s-.04.07-.05.09c-.01.02-.05.08-.05.08,0,0-.06.06-.06.07,0,.01-.02.03-.02.05,0,.02-.01.04-.01.04h0Z"/>
    <path class="cls-3" d="M36.65,72.91s-.09-.07-.23,0c-.14.07-.29.27-.3.29-.01.02-.09.13-.04.22.05.09.23-.04.26-.05.03,0,.26-.19.26-.19,0,0,.14-.08.05-.27h0Z"/>
    <path class="cls-3" d="M33.92,75.68s-.12-.22-.27-.13c-.15.09-.24.12-.38.31-.02.03-.18.23-.2.28-.03.05-.18.34.13.35.53.03.18-.31.36-.44.15-.1.42-.08.42-.18,0-.11-.07-.2-.07-.2h0Z"/>
    <path class="cls-3" d="M24.59,64.65s-.32.08-.34.19c-.02.11.18.22.22.23.03,0,.11.09.32-.05.21-.14.2-.26.2-.26,0,0,.12-.14-.4-.1h0Z"/>
    <path class="cls-3" d="M29.73,64.49s0-.12-.23-.1c-.23.01-.27.05-.28.09,0,.03.01.09.21.11.2.02.29,0,.29-.09h0Z"/>
    <path class="cls-3" d="M34.58,64.63c-.41,0-.28,0-.53.02-.46.02-.71,0-1.16-.02-.63-.04-1.61-.2-1.61-.2,0,0-.12-.02-.17.05-.05.08.12.25.27.29.8.25.84.2,1.39.21.3,0,.47-.03.77-.05.38-.03.56.03.98-.08.11-.03.21-.23.06-.23h0Z"/>
    <path class="cls-3" d="M37.31,63.82s-.08-.09-.25-.01c-.17.08-.27.27-.27.27,0,0-.08.12.09.1.17-.02.31-.09.35-.12.04-.02.16-.14.08-.24h0Z"/>
    <path class="cls-3" d="M34.93,31s1.16-1.08,1.98-2.51c.49-.85.7-2.84.28-2.34-.19.22-.42,1.26-.78,2.02-.52,1.09-1.63,2.62-1.63,2.62,0,0-.24.51.15.22h0Z"/>
    <path class="cls-3" d="M30.32,33.75s-.12.09-.07.25c.06.16.29.04.29.04,0,0,.53-.2,1.09-.22.56-.02,1.34.14,1.34.14,0,0,.37.1.43.13.06.02.26.12.3.13.03.01.22.11.33,0,.11-.1-.67-.81-1.47-.92-1.33-.18-2.2.39-2.2.39l-.04.05h0Z"/>
    <path class="cls-3" d="M24.84,38.43c.1.08.54-.76.91-1.3.27-.39.77-1.05.77-1.05,0,0,.22-.3-.16-.13-.15.07-.58.39-.87.98-.25.5-.75,1.42-.65,1.5h0Z"/>
    <path class="cls-3" d="M21.77,34.76s-.1.33.29.74c.38.41.48.75.73.51.07-.07-.24-.62-.4-.78-.16-.15-.27-.28-.27-.28l-.1-.08-.13-.07-.07-.03s-.02-.02-.05,0h0Z"/>
    <path class="cls-3" d="M20.52,31.61s-.42.08-.52.28c-.1.2.48.08.48.08,0,0,.39.02.39-.13,0-.15-.05-.17-.36-.23h0Z"/>
    <path class="cls-3" d="M13.92,42.56c-.21-.06-.25.36-.27.49-.03.13.09.41.14.4.05,0,.22-.27.23-.4.01-.13.09-.44-.1-.5h0Z"/>
    <path class="cls-3" d="M20.78,50.72s-.38-.3-.44-.18c-.06.12.31.65.31.65,0,0,.11.17.29.09.17-.08.11-.27.11-.27,0,0-.12-.25-.27-.29h0Z"/>
    <path class="cls-3" d="M17.91,41.9s-.1-.02-.13.09c-.04.12-.03.31-.06.54-.02.18.05.66.05.66,0,0,.04.38.11.61.08.25.3.6.3.6,0,0,.08.18.18.17.1,0,.08-.13.08-.13,0,0-.32-1.26-.33-1.39-.04-.42-.03-.93-.03-.93v-.08s0-.13-.17-.14h0Z"/>
    <path class="cls-3" d="M18.41,38.05s-.18-.04-.34.3c-.16.34-.13.48-.11.49.01.02.14.01.35-.3.2-.31.16-.43.16-.43,0,0-.01-.06-.06-.06h0Z"/>
    <path class="cls-3" d="M23.22,41.54s.21.31-.19.24c-.41-.07-1.26-.74-1.6-.92-.34-.18-.91-.24-.67-.45.04-.04.05-.07.12-.08.07,0,.3.09.32.1.01,0,.61.25.64.26.02,0,.36.15.6.29.24.14.63.41.63.41l.17.14h0Z"/>
    <path class="cls-3" d="M34.44,51.19c.11.35-1.28-.73-2.02-1.31-1.97-1.52-4.38-4.63-4.08-4.9.25-.23,1.24,1.2,2.69,2.76,1.55,1.67,3.35,3.24,3.41,3.44h0Z"/>
    <path class="cls-3" d="M40.23,49.71c-.43.46-.58,1.05-.33,1.49.24.43.32-.62.59-.94.23-.27.37-.23.76-.5.65-.46-.47-.64-1.01-.05h0Z"/>
    <path class="cls-3" d="M37.77,39.89c-.29-.05-.28.4-.24.72.2,1.43.84,2.53,1.69,3.56.52.63,1.95,1.75,2.11,1.57.06-.06-1.36-1.16-2.26-2.57-.64-1-.98-1.84-1.06-2.67-.01-.1.01-.58-.24-.62h0Z"/>
    <path class="cls-3" d="M32.25,18.75c-.64.35-1.76.66-1.76.66,0,0-.05.11.09.1.96-.08,1.32-.2,1.83-.42.51-.22.88-.83.88-.83,0,0,.2-.38-.18-.07-.12.09-.51.37-.86.56h0Z"/>
    <path class="cls-3" d="M40,16.3s-.22-.05-.36.04c-.15.09-.1.17-.1.17,0,0,.23.18.39.2.16.03.51.18.5.06-.01-.12-.21-.33-.28-.39-.07-.06-.14-.08-.14-.08h0Z"/>
    <path class="cls-3" d="M36.35,23c.04.08.69-.1.94-.24.2-.11.27-.48.27-.48,0,0,.05-.36-.03-.22-.37.61-1.22.87-1.18.94h0Z"/>
    <path class="cls-3" d="M36.33,21.32c.26-.5-.72.52-1.23.79-.31.16-.8.38-.8.38,0,0-.13.17.05.15.18-.01.65.15,1.03-.15.09-.07.49-.65.49-.65,0,0,.33-.28.46-.52h0Z"/>
    <path class="cls-3" d="M36.18,23.47c.02.08,1.13.05,1.4-.03.22-.06.33-.45.33-.45,0,0,.13-.34.02-.22-.5.51-1.78.61-1.76.7h0Z"/>
    <path class="cls-3" d="M18.43,33.6s-.17-.06-.38.25c-.21.31-1.14,1.72-.97,1.93.19.25,1-1.26,1.25-1.55.25-.28.15-.57.15-.57,0,0,0-.06-.05-.07h0Z"/>
    <path class="cls-3" d="M38.69,59.08c-.1.47.02,1.43.18,1.62.4.48.16-.74.21-1.17.05-.4.1-.54.3-.96.35-.77-.47-.48-.68.52h0Z"/>
    <path class="cls-3" d="M35.3,18.24s-.31,0-.55.14c-.24.13-.3.32-.3.32,0,0-.05.13-.01.21.07.16.4-.08.63,0,.19.07.28.12.42.29.12.15.35.37.49.24.14-.12.09-.43.09-.43,0,0-.16-.5-.38-.64-.21-.14-.38-.13-.38-.13h0Z"/>
    <path class="cls-3" d="M30.2,21.75s-.17.03-.13.23c.04.21.15.17.15.17,0,0,.35-.15.33-.37-.02-.22-.35-.04-.35-.04h0Z"/>
    <path class="cls-3" d="M27.72,20.64s-.19,0-.32.24c-.13.23-.21.47-.21.47,0,0-.06.31.05.4.11.09.23-.2.38-.31.1-.07.15-.1.25-.17.13-.09.35.02.33-.25-.02-.27-.31-.4-.49-.38h0Z"/>
    <path class="cls-3" d="M35.75,17.74s-.42-.06-.41.1c.01.15.23.06.37.12.13.06.22.08.33.18.08.07.07.21.17.21.14,0,.11-.05.11-.05,0,0-.12-.36-.28-.47-.16-.1-.29-.1-.29-.1h0Z"/>
    <path class="cls-3" d="M40.48,19.45c-.06.23-.1.31-.1.31,0,0-.12.47.35.29.47-.17.23-.1.57-.26.34-.17.33-.08.58-.06.08,0,.14,0,.26-.02.11-.02.06-.15-.18-.21-.25-.07-.57-.05-.94-.05-.21,0-.48-.22-.55,0h0Z"/>
    <path class="cls-3" d="M40.68,17.72s-.22-.05-.36.04c-.15.09-.1.17-.1.17,0,0,.23.18.39.2.16.03.51.18.5.06-.01-.12-.21-.33-.28-.39-.07-.06-.14-.08-.14-.08h0Z"/>
    <path class="cls-3" d="M41.52,20.97s-.23-.05-.39.04c-.16.09-.11.16-.11.16,0,0,.24.17.42.19.17.02.55.16.53.05-.02-.11-.22-.32-.29-.37-.07-.06-.15-.07-.15-.07h0Z"/>
    <path class="cls-3" d="M41.59,22.15s-.25-.05-.41.05c-.17.1-.12.18-.12.18,0,0,.26.19.44.22.18.03.58.19.56.06-.02-.13-.24-.36-.31-.43-.08-.06-.16-.08-.16-.08h0Z"/>
    <path class="cls-3" d="M41.7,23.3s-.27-.06-.45.05c-.18.11-.13.2-.13.2,0,0,.28.22.48.25.2.03.63.22.61.07-.02-.14-.26-.41-.34-.48-.08-.07-.17-.09-.17-.09h0Z"/>
    <path class="cls-3" d="M41.67,24.72s-.27-.06-.45.05c-.18.11-.13.2-.13.2,0,0,.28.22.48.25.2.03.63.22.61.07-.02-.14-.26-.41-.34-.48-.08-.07-.17-.09-.17-.09h0Z"/>
    <path class="cls-3" d="M41.48,27.49s-.27-.06-.45.05c-.18.11-.13.2-.13.2,0,0,.28.22.48.25.2.03.63.22.61.07-.02-.14-.26-.41-.34-.48-.08-.07-.17-.09-.17-.09h0Z"/>
    <path class="cls-3" d="M41.66,26.1s-.31-.07-.52.06c-.21.13-.15.24-.15.24,0,0,.32.25.55.29.23.04.72.25.7.08s-.3-.47-.39-.56c-.09-.08-.2-.11-.2-.11h0Z"/>
    <path class="cls-3" d="M41.35,28.74s-.22-.05-.37.04c-.15.09-.1.17-.1.17,0,0,.23.18.39.2.16.03.52.18.5.06-.01-.12-.21-.34-.28-.4-.07-.06-.14-.08-.14-.08h0Z"/>
    <path class="cls-3" d="M41.14,29.94s-.18-.04-.31.04c-.12.08-.09.14-.09.14,0,0,.19.15.32.17.14.02.43.15.42.05-.01-.1-.18-.28-.23-.33-.06-.05-.12-.06-.12-.06h0Z"/>
    <path class="cls-3" d="M40.88,31.03s-.16-.04-.28.03c-.11.07-.08.13-.08.13,0,0,.17.13.29.15.12.02.39.13.37.04-.01-.09-.16-.25-.21-.3-.05-.04-.11-.06-.11-.06h0Z"/>
    <path class="cls-3" d="M40.62,31.93s-.16-.04-.28.03c-.11.07-.08.13-.08.13,0,0,.17.13.29.15.12.02.39.13.37.04-.01-.09-.16-.25-.21-.3-.05-.04-.11-.06-.11-.06h0Z"/>
    <path class="cls-3" d="M40.31,32.97s-.13-.03-.22.03c-.09.06-.06.1-.06.1,0,0,.14.11.24.12.1.02.31.11.3.04,0-.07-.13-.2-.17-.24-.04-.04-.09-.05-.09-.05h0Z"/>
    <path class="cls-3" d="M39.94,33.95s-.11-.03-.19.02c-.08.05-.05.09-.05.09,0,0,.12.09.2.11.09.01.27.09.26.03,0-.06-.11-.18-.15-.21-.03-.03-.07-.04-.07-.04h0Z"/>
    <path class="cls-3" d="M39.55,34.87s-.11-.03-.19.02c-.08.05-.05.09-.05.09,0,0,.12.09.2.11.08.01.27.09.26.03,0-.06-.11-.18-.15-.21-.03-.03-.07-.04-.07-.04h0Z"/>
    <path class="cls-3" d="M14.51,39.58s-.19.37-.1.58c.1.21.36-.33.36-.33,0,0,.27-.53.16-.63-.11-.1-.18.18-.42.38h0Z"/>
    <path class="cls-4" d="M29.19,72.54s-.14-.19-.28-.05c-.14.14-.31.36-.63.33-.32-.02-.45-.07-.63-.15-.18-.08-.43-.2-.43-.2,0,0-.65-.25-1.19-.26-.55-.01-1.44.21-1.88.68-.43.47-.54.95-.54.95,0,0-.14.85.1,1.25.25.39.52.81,1.12,1.18.6.37.87.51.87.51l1.05.48.97.37s1.4.42,1.57,1.48c.17,1.06-.47,2.43-2.4,2.55-1.9.12-2.83-.8-3.12-1.39s-.13-1.1-.13-1.1l.08-.16.07-.04s.3.2.58.16c.29-.04.82-.39.71-.95-.11-.57-.62-.7-.87-.67-.24.02-1.33.3-1.35,1.89-.02,1.58,1.42,2.43,1.42,2.43,0,0,1.02.64,2.18.58,1.15-.05,2.11-.51,2.11-.51,0,0,1.71-.85,1.75-2.71.04-1.86-1.13-2.51-1.13-2.51,0,0-.42-.29-.81-.47-.38-.18-1.31-.62-1.31-.62l-.94-.43-.57-.32-.32-.21s-.76-.6-.36-1.25c.41-.65,1.58-.41,1.58-.41,0,0,.91.19,1.62.7.71.51,1.12,1.12,1.12,1.12l.3.48.04.07.25-.09s-.39-1.1-.47-1.55c-.07-.46-.15-1.16-.15-1.16h0Z"/>
    <path class="cls-4" d="M40.46,78.8s.25.28.59.28.83-.24.82-.85c0-.61-.63-.78-.63-.78,0,0-.94-.22-1.4.73-.46.95-.21,1.78-.21,1.78,0,0,.21,1.29,1.58,2.05,1.36.76,2.82.2,2.82.2,0,0,1.1-.36,2.04-1.43.95-1.07,1.4-2.33,1.4-2.33l.33-.83h.4s.55.06.95-.26c.39-.32.64-.75.64-.75l.05-.13-.25-.12s-.29.38-.69.41c-.4.04-.81-.03-.81-.03l.38-1.03s.44-.9.57-1.1c.13-.21.64-.87.64-.87,0,0,1.07,0,2.09-.22,1.03-.21,1.66-.47,1.66-.47l1.27-.53.31-.17-.1-.25s-1.15.41-2.84.6c-1.69.19-2.76-.01-2.76-.01l-1.92-.3s-.58-.1-1.04-.1c-.45,0-1.37.16-1.37.16,0,0-.92.21-1.33.52-.41.31-1.4,1.04-.95,2.15.45,1.11,2.29.52,2.55-.3,0,0,.1-.27.1-.27l.03-.15-.16-.06-.18.22s-.69.58-1.22.21c-.53-.37-.17-.89-.12-.95.05-.06.34-.41,1.03-.56.69-.16,1.72.1,1.72.1l1.12.21s.62.12.65.12.23.03.23.03l-.39.44s-.57.55-.97,1.34c-.4.79-.58,1.21-.58,1.21l-.04.06s-.5.06-.82.25c-.32.19-.53.49-.53.49l-.15.27.2.17s.23-.26.51-.33c.28-.07.5.04.5.04,0,0-.41,1.01-.6,1.37-.19.36-.52,1.03-.98,1.52-.46.5-.79.93-1.84,1.07-1.05.15-1.79-.53-2.06-.86-.27-.33-.44-.84-.45-1.21-.01-.37.18-.73.18-.73h0Z"/>
    <polygon class="cls-5" points=".01 8.94 .01 6.8 35.77 0 71.52 6.8 71.52 8.94 35.77 2.33 .01 8.94 .01 8.94"/>
  </g>
  <g>
    <g>
      <path class="cls-3" d="M161.91,79.24c.28.3.57.6.87.89,0,0,.01.01.02.02.03.03.06.06.09.08.23.23.47.46.7.68.14.14.29.27.43.4.12.11.24.23.37.34.19.17.38.34.57.5.08.07.16.14.24.21.22.19.45.38.67.57.05.04.09.08.14.12.25.21.5.41.76.61.02.02.04.04.07.05.27.22.55.43.83.64,0,0,0,0,0,0,1.74,1.3,3.55,2.46,5.42,3.48,0,0,.01,0,.02.01.3.16.6.32.9.48.03.02.07.04.1.05.27.14.55.28.83.41.07.03.14.07.21.1.24.12.48.23.73.34.11.05.22.1.33.15.2.09.41.18.61.27.15.07.31.13.46.2.16.07.33.13.49.2.2.08.4.16.6.24.12.05.24.09.36.14.24.09.49.18.74.27.08.03.16.06.24.08.28.1.57.19.85.29.04.01.09.03.13.04.32.1.63.2.95.29.01,0,.03,0,.04.01,2.04.6,4.13,1.06,6.28,1.37.01,0,.02,0,.03,0,.34.05.67.09,1.01.13.04,0,.07,0,.11.01.31.04.63.07.94.1.07,0,.14.01.21.02.28.03.56.05.85.07.12,0,.23.01.35.02.24.02.48.03.73.04.18,0,.37.01.55.02.18,0,.36.01.54.02.37,0,.74.01,1.11.01s.74,0,1.11-.01c.18,0,.36-.01.54-.02.18,0,.37-.01.55-.02.24-.01.48-.03.73-.04.12,0,.23-.01.35-.02.28-.02.57-.05.85-.07.07,0,.14-.01.21-.02.32-.03.63-.06.94-.1.04,0,.07,0,.11-.01.34-.04.68-.09,1.02-.13,0,0,.02,0,.03,0,2.15-.31,4.25-.77,6.28-1.37h.03c.32-.11.64-.21.96-.31.04-.01.08-.03.12-.04.29-.09.58-.19.86-.29.08-.03.15-.05.23-.08.25-.09.5-.18.75-.27.12-.04.23-.09.35-.13.21-.08.41-.16.62-.24.16-.06.32-.13.48-.19.16-.07.32-.13.48-.2.2-.09.4-.17.6-.26.12-.05.23-.1.34-.15.24-.11.48-.22.71-.33.07-.04.15-.07.22-.11.27-.13.54-.27.81-.4.04-.02.08-.04.12-.06.3-.15.59-.31.89-.47.01,0,.03-.01.04-.02,1.87-1.01,3.67-2.17,5.41-3.47,0,0,.02-.01.03-.02.27-.2.54-.41.81-.62.03-.02.06-.05.09-.07.25-.19.49-.39.73-.59.06-.05.11-.1.17-.14.21-.18.43-.36.64-.54.09-.08.18-.16.27-.24.18-.16.36-.31.53-.47.14-.13.28-.26.43-.39.12-.12.25-.23.37-.35.54-.51,1.06-1.03,1.57-1.57.12-.12.23-.25.34-.37.13-.14.27-.28.4-.43.16-.17.31-.35.47-.53.08-.09.17-.19.25-.28.18-.21.36-.42.54-.63.05-.06.1-.12.15-.18.2-.24.39-.48.58-.72.03-.03.05-.07.08-.1.21-.26.41-.53.61-.8,0-.01.02-.02.03-.04,1.3-1.73,2.45-3.54,3.46-5.4,0-.02.02-.03.03-.05.16-.29.31-.58.46-.88.02-.04.04-.09.07-.13.14-.27.27-.53.4-.8.04-.08.07-.16.11-.23.11-.23.22-.47.33-.7.05-.12.11-.24.16-.36.09-.2.17-.39.26-.59.07-.16.14-.33.21-.49.06-.15.13-.31.19-.46.08-.21.16-.42.25-.63.04-.11.09-.22.13-.34.09-.25.19-.5.28-.76.03-.07.05-.14.08-.22.1-.29.2-.58.29-.88.01-.04.02-.07.04-.11.1-.32.2-.65.3-.97,0,0,0-.02,0-.02.6-2.04,1.07-4.14,1.38-6.29,0,0,0-.01,0-.02.05-.34.09-.68.14-1.03,0-.03,0-.06.01-.1.04-.32.07-.64.1-.95,0-.07.01-.13.02-.2.03-.29.05-.57.07-.86,0-.11.01-.22.02-.33.02-.25.03-.49.04-.74,0-.18.01-.35.02-.53,0-.19.02-.37.02-.56,0-.36.01-.71.01-1.07,0-.01,0-.02,0-.04,0-.02,0-.04,0-.06,0-4.04-.56-8.08-1.65-12.01h0c-.06-.2-.12-.4-.17-.6,0-.03-.02-.06-.03-.09-.2-.67-.41-1.33-.64-1.99-.03-.1-.07-.19-.1-.29-.07-.21-.15-.41-.22-.62-.06-.16-.12-.33-.19-.49-.05-.13-.1-.26-.15-.39-.08-.2-.16-.39-.24-.59-.03-.08-.07-.16-.1-.24-1.68-4-3.97-7.8-6.87-11.26-.02-.03-.04-.05-.07-.08-.17-.2-.34-.41-.52-.61-.04-.04-.08-.09-.11-.13-.32-.36-.64-.72-.97-1.08-.05-.05-.09-.1-.14-.15-.13-.13-.26-.27-.39-.4-.11-.12-.23-.23-.34-.35-.06-.06-.12-.12-.18-.18-.07-.07-.14-.13-.2-.2-.11-.11-.22-.21-.33-.32-.1-.09-.2-.19-.29-.28-.18-.17-.35-.33-.53-.5-.03-.03-.06-.06-.09-.09h0c-2.5-2.29-5.27-4.3-8.25-5.98h0c-.47-.27-.95-.52-1.43-.77-.01,0-.02-.01-.04-.02-.21-.11-.43-.22-.64-.32-.07-.03-.13-.07-.2-.1-.16-.08-.33-.16-.49-.24-.12-.06-.24-.11-.36-.17-.11-.05-.22-.1-.34-.15-.18-.08-.35-.16-.53-.24-.06-.03-.12-.05-.17-.07-.23-.1-.47-.2-.7-.3,0,0,0,0,0,0-4.58-1.88-9.54-3.03-14.74-3.29-.02,0-.04,0-.07,0-.25-.01-.49-.02-.74-.03-.07,0-.14,0-.2,0-.22,0-.44,0-.66-.01-.09,0-.19,0-.28,0-.1,0-.2,0-.3,0-.11,0-.21,0-.32,0-.11,0-.21,0-.32,0-.21,0-.42,0-.62.01-.09,0-.17,0-.26,0-.23,0-.46.02-.69.03-.04,0-.09,0-.13,0-4.23.22-8.31,1.03-12.15,2.34,0,0-.02,0-.03,0-.26.09-.52.18-.78.28-.05.02-.11.04-.16.06-.22.08-.43.16-.65.24-.11.04-.21.08-.32.12-.16.06-.33.13-.49.2-.17.07-.33.14-.5.21-.1.04-.2.09-.3.13-.24.1-.47.21-.71.31-.03.01-.06.03-.09.04-4.09,1.86-7.96,4.37-11.45,7.53-.01.01-.03.03-.04.04-.2.18-.39.36-.59.54-.04.04-.07.07-.11.11-.18.17-.35.34-.53.51-.05.05-.1.1-.15.14-.07.07-.14.14-.21.21-.1.1-.19.19-.28.29-.05.06-.11.11-.16.17-.17.18-.34.35-.51.53-.04.04-.08.08-.11.12-.18.2-.37.4-.55.6-.01.01-.02.03-.04.04-3.98,4.43-6.93,9.46-8.83,14.78-.03.07-.05.14-.08.21-.05.14-.09.27-.14.41-.06.17-.12.34-.17.51,0,.02-.01.04-.02.05-.38,1.15-.71,2.33-.99,3.52h0c-.71,2.97-1.1,6.01-1.19,9.05h0c0,.31-.01.62-.02.93,0,0,0,.02,0,.03,0,.12,0,.25,0,.37,0,.12,0,.23,0,.35,0,.13,0,.27,0,.4,0,.22,0,.43.01.65,0,.08,0,.17,0,.25.19,5.31,1.31,10.38,3.2,15.06,0,0,0,.02.01.03.3.75.63,1.5.97,2.23.05.11.1.22.16.34.06.13.13.26.19.39.09.18.18.37.27.55.05.11.11.21.17.32.11.21.22.41.33.62.05.09.1.18.15.27.12.23.25.45.38.68.04.07.08.14.12.21.15.25.29.5.44.75.03.04.05.09.08.13.04.06.08.13.12.19h0c1.6,2.6,3.47,5.03,5.55,7.24h0s.03.03.04.04Z"/>
      <path class="cls-3" d="M242.94,48.48c0-4.34-.59-8.66-1.74-12.83-.02-.07-.03-.14-.05-.2-.05-.18-.1-.36-.16-.54l-.06-.21c-.22-.74-.45-1.47-.7-2.16l-.11-.31c-.08-.23-.16-.46-.25-.68-.06-.17-.13-.35-.2-.53-.06-.15-.11-.29-.17-.43-.08-.21-.17-.42-.26-.64l-.11-.26c-1.86-4.43-4.38-8.55-7.47-12.24l-.07-.09c-.18-.22-.37-.44-.56-.66l-.12-.13c-.35-.4-.71-.8-1.06-1.17l-.15-.16c-.12-.12-.24-.25-.36-.37l-.06-.07c-.12-.12-.24-.25-.36-.37l-.42-.42c-.11-.11-.23-.23-.36-.35l-.32-.31c-.19-.18-.38-.36-.59-.55l-.14-.13c-2.68-2.44-5.62-4.58-8.75-6.36-.05-.03-.1-.06-.15-.09-.49-.28-1-.55-1.55-.84l-.05-.03c-.22-.11-.45-.23-.69-.35l-.22-.11c-.16-.08-.32-.15-.47-.23l-.82-.38c-.19-.09-.38-.17-.58-.26l-.19-.08c-.24-.11-.5-.21-.77-.33-5.09-2.09-10.48-3.3-16.01-3.57h-.07c-.27-.02-.54-.03-.81-.04h-.22c-.24-.01-.48-.02-.72-.02h-.62s-.69,0-.69,0c-.22,0-.45,0-.68.01h-.29c-.25.02-.5.03-.75.04h-.14c-4.51.24-8.95,1.1-13.23,2.56-.28.1-.57.2-.85.3l-.17.06c-.24.09-.47.18-.71.27l-.36.14c-.17.07-.34.14-.51.21-.17.07-.34.14-.54.23l-.33.14c-.25.11-.51.22-.79.35l-.08.03c-4.54,2.06-8.72,4.82-12.44,8.18l-.04.04c-.22.2-.43.4-.66.61l-.1.1c-.19.18-.38.36-.57.55l-.39.38c-.07.07-.14.15-.21.22l-.27.28c-.19.19-.37.38-.55.58l-.13.14c-.2.21-.39.42-.59.64l-.03.04c-4.24,4.72-7.47,10.13-9.6,16.07l-.27.77c-.05.15-.1.3-.15.45l-.02.06c-.41,1.26-.77,2.55-1.08,3.82-.01.05-.02.09-.03.13-.74,3.15-1.17,6.4-1.26,9.64v.06c-.01.33-.02.66-.02,1h.32s-.32.05-.32.05v.39c0,.09,0,.18,0,.26v.56c.01.23.02.46.02.7v.26c.21,5.65,1.38,11.16,3.5,16.4.33.81.68,1.63,1.06,2.42l.17.36c.05.1.1.21.16.32l.05.1c.1.2.19.4.3.6l.18.35c.12.22.23.45.36.67l.16.29c.14.25.27.5.41.74l.13.22c.16.27.32.55.48.82l.21.35c.03.05.07.11.09.14,1.69,2.73,3.67,5.3,5.87,7.64.03.03.05.06.08.09l.04.04c.33.35.63.66.94.97l.1.1c.25.25.51.5.76.74.12.11.23.22.35.33l.23.22c.09.09.19.18.28.26.2.18.4.36.6.53l.27.24c.24.21.48.41.72.61l.16.13c.27.22.55.44.82.66l.08.06c.27.22.57.44.89.69,1.87,1.4,3.86,2.68,5.93,3.8.33.18.66.35.98.52l.11.05c.3.15.6.3.9.45l.22.11c.27.13.53.25.79.37l.36.16c.23.1.45.2.67.29.15.07.31.13.5.21.18.07.36.15.53.22.21.09.43.17.67.26l.38.14c.26.1.53.19.8.29l.26.09c.3.11.61.21.92.31l.15.05c.34.11.69.22,1.03.32l.06.02c2.22.66,4.51,1.16,6.81,1.49h.04c.36.06.73.11,1.1.15h.12c.34.05.68.09,1.03.12l.23.02c.31.03.62.06.92.08l.44.03c.24.02.48.03.73.04.13,0,.26.01.39.02h.37c.14.02.28.02.42.03.4,0,.8.01,1.2.01s.8,0,1.2-.01c.14,0,.28,0,.42-.01h.31c.15-.02.3-.02.45-.03.24-.01.48-.03.72-.04l.44-.03c.31-.02.61-.05.92-.08l.23-.02c.34-.03.68-.07,1.05-.11h.09c.37-.05.73-.1,1.14-.16,2.3-.33,4.59-.83,6.86-1.5.35-.1.7-.21,1.05-.32l.13-.04c.32-.1.63-.21.94-.32l.24-.09c.27-.1.54-.19.81-.3l.37-.14c.23-.09.45-.17.67-.26.17-.07.34-.14.52-.21.18-.07.35-.15.52-.22.22-.09.43-.19.68-.3l.35-.16c.26-.12.52-.24.8-.38l.22-.1c.29-.14.58-.29.88-.44l.13-.07c.32-.16.64-.33.96-.51l.05-.03c2.03-1.1,4.01-2.37,5.9-3.79h0s0,0,0,0c.3-.23.59-.45.88-.67l.1-.08c.27-.21.53-.42.8-.64l.18-.15c.24-.2.47-.39.7-.59l.36-.32c.17-.15.34-.3.51-.46.11-.1.21-.19.31-.29l.31-.28c.08-.08.16-.15.24-.23.58-.55,1.15-1.12,1.7-1.7.08-.08.16-.17.27-.29l.21-.22c.11-.12.22-.24.33-.36.15-.16.3-.33.45-.5l.33-.37c.19-.22.39-.45.58-.68l.17-.2c.21-.26.42-.52.65-.81l.07-.09c.22-.28.44-.57.66-.86l.04-.05c1.38-1.85,2.65-3.82,3.75-5.86l.02-.04c.18-.33.34-.64.51-.96l.07-.14c.15-.29.29-.58.44-.88l.12-.25c.12-.25.24-.51.36-.76.06-.12.11-.25.17-.38.1-.22.19-.43.28-.65.07-.17.15-.35.22-.53.07-.17.14-.34.21-.51.09-.22.18-.45.27-.68l.14-.37c.1-.27.2-.54.3-.82l.08-.24c.11-.31.22-.63.32-.95l.04-.12c.11-.34.22-.69.33-1.05v-.03c.67-2.23,1.17-4.53,1.51-6.86.05-.37.1-.74.15-1.12v-.1c.05-.34.09-.69.12-1.04l.02-.21c.03-.32.06-.63.08-.94l.03-.42c.02-.25.03-.5.04-.74,0-.14.01-.28.02-.42v-.3c.02-.15.02-.31.03-.46,0-.37.01-.75.01-1.12v-.08s0-.07,0-.07ZM156.32,71.95h0c-.04-.06-.08-.13-.12-.19-.03-.04-.05-.09-.08-.13-.15-.25-.3-.5-.44-.75-.04-.07-.08-.14-.12-.21-.13-.22-.25-.45-.38-.68-.05-.09-.1-.18-.15-.27-.11-.21-.22-.41-.33-.62-.06-.11-.11-.21-.17-.32-.09-.18-.18-.37-.27-.55-.06-.13-.13-.26-.19-.39-.05-.11-.1-.22-.16-.34-.34-.73-.67-1.48-.97-2.23,0,0,0-.02-.01-.03-1.89-4.68-3-9.75-3.2-15.06,0-.08,0-.17,0-.25,0-.21-.01-.43-.01-.65,0-.13,0-.27,0-.4,0-.12,0-.23,0-.35,0-.12,0-.25,0-.37,0,0,0-.02,0-.03,0-.31,0-.62.02-.93h0c.09-3.04.49-6.07,1.19-9.05h0c.28-1.19.62-2.37.99-3.52,0-.02.01-.04.02-.05.06-.17.11-.34.17-.51.05-.14.09-.27.14-.41.02-.07.05-.14.08-.21,1.9-5.32,4.84-10.35,8.83-14.78.01-.01.02-.03.04-.04.18-.2.36-.4.55-.6.04-.04.08-.08.11-.12.17-.18.34-.35.51-.53.05-.06.11-.11.16-.17.09-.1.19-.19.28-.29.07-.07.14-.14.21-.21.05-.05.1-.1.15-.14.18-.17.35-.34.53-.51.04-.04.07-.07.11-.11.19-.18.39-.36.59-.54.01-.01.03-.03.04-.04,3.49-3.16,7.36-5.67,11.45-7.53.03-.01.06-.03.09-.04.24-.11.47-.21.71-.31.1-.04.2-.09.3-.13.17-.07.33-.14.5-.21.16-.07.33-.13.49-.2.11-.04.21-.08.32-.12.21-.08.43-.16.65-.24.05-.02.11-.04.16-.06.26-.09.52-.19.78-.28,0,0,.02,0,.03,0,3.84-1.32,7.92-2.12,12.15-2.34.04,0,.09,0,.13,0,.23-.01.46-.02.69-.03.09,0,.17,0,.26,0,.21,0,.41,0,.62-.01.11,0,.21,0,.32,0,.11,0,.21,0,.32,0,.1,0,.2,0,.3,0,.09,0,.19,0,.28,0,.22,0,.44,0,.66.01.07,0,.14,0,.2,0,.25,0,.5.02.74.03.02,0,.04,0,.07,0,5.2.26,10.16,1.4,14.74,3.29,0,0,0,0,0,0,.24.1.47.2.7.3.06.02.12.05.17.07.18.08.35.16.53.24.11.05.23.1.34.15.12.06.24.11.36.17.16.08.33.16.49.24.07.03.13.07.2.1.21.11.43.21.64.32.01,0,.02.01.04.02.48.25.96.5,1.43.77h0c2.98,1.68,5.74,3.69,8.25,5.98h0s.06.06.09.09c.18.16.36.33.53.5.1.09.2.19.29.28.11.11.22.21.33.32.07.07.14.13.2.2.06.06.12.12.18.18.11.12.23.23.34.35.13.13.26.27.39.4.05.05.09.1.14.15.33.35.66.71.97,1.08.04.04.08.09.11.13.18.2.35.4.52.61.02.03.04.05.07.08,2.9,3.47,5.19,7.27,6.87,11.26.03.08.07.16.1.24.08.2.16.39.24.59.05.13.1.26.15.39.06.16.13.33.19.49.08.21.15.41.22.62.03.1.07.19.1.29.23.66.44,1.32.64,1.99,0,.03.02.06.03.09.06.2.12.4.17.6h0c1.1,3.92,1.65,7.96,1.65,12,0,.02,0,.04,0,.06,0,.01,0,.02,0,.04,0,.36,0,.71-.01,1.07,0,.19-.01.37-.02.56,0,.18-.01.35-.02.53-.01.25-.03.49-.04.74,0,.11-.01.22-.02.33-.02.29-.05.58-.07.86,0,.07-.01.13-.02.2-.03.32-.07.64-.1.95,0,.03,0,.06-.01.1-.04.34-.09.69-.14,1.03,0,0,0,.01,0,.02-.31,2.15-.77,4.25-1.38,6.29,0,0,0,.02,0,.02-.1.33-.2.65-.3.97-.01.04-.02.07-.04.11-.1.29-.19.59-.29.88-.03.07-.05.14-.08.22-.09.25-.18.51-.28.76-.04.11-.09.22-.13.34-.08.21-.16.42-.25.63-.06.15-.13.31-.19.46-.07.16-.14.33-.21.49-.08.2-.17.39-.26.59-.05.12-.11.24-.16.36-.11.24-.22.47-.33.7-.04.08-.07.16-.11.23-.13.27-.26.53-.4.8-.02.04-.04.09-.07.13-.15.29-.3.58-.46.88,0,.02-.02.03-.03.05-1.01,1.86-2.17,3.67-3.46,5.4,0,.01-.02.02-.03.04-.2.27-.41.54-.61.8-.03.03-.05.07-.08.1-.19.24-.39.48-.58.72-.05.06-.1.12-.15.18-.18.21-.35.42-.54.63-.08.09-.16.19-.25.28-.15.18-.31.35-.47.53-.13.14-.26.29-.4.43-.12.12-.23.25-.34.37-.51.54-1.03,1.06-1.57,1.57-.12.12-.25.23-.37.35-.14.13-.28.26-.43.39-.18.16-.35.32-.53.47-.09.08-.18.16-.27.24-.21.18-.43.36-.64.54-.06.05-.11.1-.17.14-.24.2-.49.4-.73.59-.03.02-.06.05-.09.07-.27.21-.54.42-.81.62,0,0-.02.01-.03.02-1.74,1.3-3.54,2.45-5.41,3.47-.01,0-.03.01-.04.02-.29.16-.59.31-.89.47-.04.02-.08.04-.12.06-.27.14-.54.27-.81.4-.07.04-.15.07-.22.11-.24.11-.48.22-.71.33-.11.05-.23.1-.34.15-.2.09-.4.18-.6.26-.16.07-.32.13-.48.2-.16.07-.32.13-.48.19-.2.08-.41.16-.62.24-.12.04-.23.09-.35.13-.25.09-.5.18-.75.27-.08.03-.15.05-.23.08-.29.1-.57.2-.86.29-.04.01-.08.03-.12.04-.32.1-.64.2-.96.3h-.03c-2.04.61-4.14,1.08-6.28,1.38,0,0-.02,0-.03,0-.34.05-.68.09-1.02.13-.04,0-.07,0-.11.01-.31.04-.63.07-.94.1-.07,0-.14.01-.21.02-.28.03-.57.05-.85.07-.12,0-.23.01-.35.02-.24.02-.48.03-.73.04-.18,0-.37.01-.55.02-.18,0-.36.01-.54.02-.37,0-.74.01-1.11.01s-.74,0-1.11-.01c-.18,0-.36-.01-.54-.02-.18,0-.37-.01-.55-.02-.24-.01-.48-.03-.73-.04-.12,0-.23-.01-.35-.02-.28-.02-.57-.05-.85-.07-.07,0-.14-.01-.21-.02-.32-.03-.63-.06-.94-.1-.04,0-.07,0-.11-.01-.34-.04-.68-.09-1.01-.13-.01,0-.02,0-.03,0-2.15-.31-4.24-.77-6.28-1.37-.01,0-.03,0-.04-.01-.32-.09-.64-.19-.95-.29-.04-.01-.09-.03-.13-.04-.29-.09-.57-.19-.85-.29-.08-.03-.16-.06-.24-.08-.25-.09-.49-.18-.74-.27-.12-.04-.24-.09-.36-.14-.2-.08-.4-.16-.6-.24-.16-.07-.33-.13-.49-.2-.16-.06-.31-.13-.46-.2-.21-.09-.41-.18-.61-.27-.11-.05-.22-.1-.33-.15-.24-.11-.49-.22-.73-.34-.07-.03-.14-.07-.21-.1-.28-.13-.55-.27-.83-.41-.03-.02-.07-.04-.1-.05-.3-.15-.6-.31-.9-.48,0,0-.01,0-.02-.01-1.87-1.02-3.68-2.17-5.42-3.48,0,0,0,0,0,0-.28-.21-.56-.42-.83-.64-.02-.02-.04-.04-.07-.05-.25-.2-.51-.4-.76-.61-.05-.04-.09-.08-.14-.12-.22-.19-.45-.38-.67-.57-.08-.07-.16-.14-.24-.21-.19-.17-.38-.33-.57-.5-.12-.11-.24-.23-.37-.34-.14-.13-.29-.27-.43-.4-.24-.23-.47-.45-.7-.68-.03-.03-.06-.06-.09-.08,0,0-.01-.01-.02-.02-.29-.29-.58-.59-.87-.89-.01-.01-.03-.03-.04-.04h0c-2.09-2.21-3.95-4.64-5.55-7.24Z"/>
    </g>
    <path class="cls-6" d="M194.39,93.23c-.44,0-.89,0-1.33-.02l9.13-25.1h12.57c2.21,0,4.63-1.7,5.38-3.77l9.91-27.21c1.62-4.46-.93-8.1-5.67-8.1h-17.43l-14.63,40.2h0l-8.29,22.79c-19.67-4.68-34.31-22.36-34.31-43.47s13.8-37.77,32.62-43.03l-8.56,23.52h0l-14.23,39.08h9.47s12.1-33.21,12.1-33.21h7.12l-12.1,33.21h9.47s11.27-30.98,11.27-30.98c1.62-4.46-.93-8.1-5.67-8.1h-7.96l9.14-25.12c.67-.03,1.34-.05,2.01-.05,24.68,0,44.68,20.01,44.68,44.68s-20,44.68-44.68,44.68ZM221.43,34.88h-7.11l-9.96,27.34h7.12l9.96-27.34Z"/>
  </g>
</svg>